<?xml version="1.0" encoding="UTF-8"?>
<!DOCTYPE svg PUBLIC "-//W3C//DTD SVG 1.1//EN" "http://www.w3.org/Graphics/SVG/1.1/DTD/svg11.dtd">
<!-- Creator: CorelDRAW -->
<svg xmlns="http://www.w3.org/2000/svg" xml:space="preserve" width="62.1692mm" height="20.848mm" style="shape-rendering:geometricPrecision; text-rendering:geometricPrecision; image-rendering:optimizeQuality; fill-rule:evenodd; clip-rule:evenodd"
viewBox="0 0 62.1692 20.848"
 xmlns:xlink="http://www.w3.org/1999/xlink">
 <defs>
  <style type="text/css">
   <![CDATA[
    .fil1 {fill:white}
    .fil0 {fill:white;fill-rule:nonzero}
   ]]>
  </style>
 </defs>
 <g id="Слой_x0020_1">
  <metadata id="CorelCorpID_0Corel-Layer"/>
  <g id="_82602864">
   <polygon id="_83011352" class="fil0" points="30.1713,9.0972 30.1713,6.781 30.6382,6.781 30.6382,7.8101 31.5831,6.781 32.2127,6.781 31.3406,7.684 32.2604,9.0972 31.6546,9.0972 31.0181,8.0106 30.6382,8.3976 30.6382,9.0972 "/>
   <path id="_82602600" class="fil1" d="M28.5478 9.0608l2.6069 -4.5533 5.2464 -0.0527 -2.6127 -4.4548 -5.2464 0.0527 -2.6069 4.5532 2.6127 4.4549zm1.8259 -5.4958l0 -2.3168 0.9263 0c0.1834,0 0.3204,0.0077 0.4103,0.0231 0.0902,0.0152 0.1705,0.0471 0.2418,0.0955 0.0711,0.0486 0.1299,0.1128 0.1774,0.1937 0.0475,0.0805 0.0713,0.1711 0.0713,0.2708 0,0.1084 -0.0292,0.2083 -0.0874,0.2989 -0.0589,0.0907 -0.138,0.1585 -0.238,0.2039 0.1409,0.0409 0.2499,0.111 0.3254,0.2098 0.0759,0.0992 0.1138,0.2158 0.1138,0.3496 0,0.1051 -0.0244,0.2076 -0.0734,0.3073 -0.0491,0.0994 -0.1159,0.1793 -0.2007,0.2385 -0.0847,0.0594 -0.1893,0.0961 -0.3138,0.1101 -0.0779,0.0081 -0.266,0.0135 -0.5643,0.0156l-0.7887 0z"/>
   <path id="_82602552" class="fil1" d="M30.8428 3.1749l0.4328 0c0.1688,0 0.2756,-0.0043 0.321,-0.0139 0.0694,-0.0125 0.126,-0.0438 0.1699,-0.0924 0.0436,-0.049 0.0657,-0.1149 0.0657,-0.1968 0,-0.0696 -0.0173,-0.1284 -0.0506,-0.1768 -0.0342,-0.0488 -0.0826,-0.0844 -0.1462,-0.1063 -0.0638,-0.0223 -0.2024,-0.0331 -0.4149,-0.0331l-0.3777 0 0 0.6193z"/>
   <path id="_82602384" class="fil1" d="M31.1486 2.1697c0.1822,0 0.2956,-0.0026 0.3396,-0.0082 0.0799,-0.0091 0.143,-0.0365 0.1889,-0.0825 0.0459,-0.0457 0.0684,-0.1062 0.0684,-0.1812 0,-0.0717 -0.0194,-0.1299 -0.0588,-0.1749 -0.0398,-0.0446 -0.0986,-0.0715 -0.1762,-0.0809 -0.0465,-0.0052 -0.1797,-0.0079 -0.3998,-0.0079l-0.2686 0 0 0.5356 0.3065 0z"/>
   <path id="_82602432" class="fil1" d="M36.5843 4.8882l-5.1645 0.029 2.6344 4.5374 -2.5833 4.5669 5.1643 -0.029 2.5833 -4.5667 -2.6342 -4.5376zm-1.4769 5.2418c0.0955,-0.198 0.1591,-0.4278 0.1893,-0.69 0.0307,-0.2615 0.0457,-0.5927 0.0457,-0.993l0 -0.2448 1.6011 0 0 1.9278 0.2039 0 0 0.8944 -0.3888 0 0 -0.5055 -1.4587 0 0 0.5055 -0.3889 0 0 -0.8944 0.1964 0z"/>
   <path id="_82602144" class="fil1" d="M35.7879 8.5912c0,0.7033 -0.0636,1.2167 -0.1908,1.5388l0.8801 0 0 -1.5388 -0.6893 0z"/>
   <path id="_82656112" class="fil1" d="M28.2883 9.5165l-2.6521 -4.5272 -2.5681 4.4807 2.6521 4.5271 5.2468 0.0003 2.5681 -4.4805 -5.2468 -0.0004zm-2.4564 0.5572l1.8411 0 0 0.392 -0.6855 0 0 1.9247 -0.4684 0 0 -1.9247 -0.6872 0 0 -0.392z"/>
   <g>
    <path id="_82665280" class="fil0" d="M2.749 20.6741c0,0.0213 -0.0052,0.0396 -0.0169,0.0557 -0.0116,0.015 -0.0302,0.029 -0.0561,0.0386 -0.0258,0.011 -0.0615,0.0183 -0.1059,0.0239 -0.0439,0.0052 -0.099,0.0084 -0.1659,0.0084 -0.0659,0 -0.1213,-0.0032 -0.1658,-0.0084 -0.0446,-0.0056 -0.0794,-0.0129 -0.1042,-0.0239 -0.025,-0.0096 -0.0429,-0.0236 -0.0534,-0.0386 -0.0108,-0.0161 -0.0162,-0.0344 -0.0162,-0.0557l0 -2.1467c0,-0.0817 0.001,-0.1622 0.0027,-0.2406 0.0017,-0.0784 0.0046,-0.1484 0.0081,-0.2095l-0.0054 0c-0.0135,0.03 -0.0302,0.0634 -0.049,0.103 -0.0196,0.0386 -0.0402,0.0796 -0.0615,0.1226 -0.0223,0.0429 -0.0446,0.0871 -0.0696,0.1321 -0.024,0.0451 -0.048,0.0882 -0.073,0.1301l-1.1746 2.112c-0.0141,0.0237 -0.0285,0.0431 -0.0437,0.0602 -0.0142,0.0171 -0.0338,0.0302 -0.057,0.0398 -0.0231,0.0086 -0.0525,0.0152 -0.0863,0.0182 -0.0338,0.0031 -0.0775,0.0054 -0.1319,0.0054 -0.0678,0 -0.1222,-0.0032 -0.1641,-0.0084 -0.0417,-0.0056 -0.0749,-0.0129 -0.098,-0.0239 -0.0231,-0.0096 -0.0392,-0.0236 -0.048,-0.0407 -0.0091,-0.0162 -0.0133,-0.0365 -0.0133,-0.0592l0 -3.8527c0,-0.0215 0.0052,-0.0396 0.0167,-0.0557 0.0117,-0.015 0.0304,-0.029 0.0579,-0.0388 0.0269,-0.0106 0.0617,-0.0181 0.1053,-0.0235 0.0436,-0.0056 0.099,-0.0086 0.1647,-0.0086 0.0678,0 0.1232,0.003 0.1668,0.0086 0.0436,0.0054 0.0784,0.0129 0.1044,0.0235 0.0265,0.0098 0.0443,0.0238 0.0551,0.0388 0.0108,0.0161 0.016,0.0342 0.016,0.0557l0 2.1584c0,0.0679 -0.0008,0.1388 -0.0027,0.2151 -0.0018,0.0751 -0.0044,0.1481 -0.0079,0.22l0.0054 0c0.0294,-0.0634 0.0669,-0.1385 0.1122,-0.2266 0.0454,-0.0882 0.0917,-0.1741 0.1407,-0.2588l1.1746 -2.1112c0.0125,-0.0215 0.026,-0.0397 0.0392,-0.0559 0.0142,-0.015 0.0329,-0.0279 0.0563,-0.0386 0.0239,-0.0108 0.0525,-0.0183 0.0873,-0.0227 0.0346,-0.0042 0.0792,-0.0063 0.1335,-0.0063 0.066,0 0.1196,0.003 0.1605,0.0086 0.0409,0.0054 0.073,0.0129 0.098,0.0235 0.024,0.0098 0.0412,0.0238 0.0508,0.0388 0.0098,0.0161 0.0142,0.0353 0.0142,0.059l0 3.855zm3.4854 0c0,0.0213 -0.0054,0.0396 -0.0169,0.0557 -0.0115,0.015 -0.0304,0.029 -0.0561,0.0386 -0.026,0.011 -0.0615,0.0183 -0.1061,0.0239 -0.0436,0.0052 -0.099,0.0084 -0.1659,0.0084 -0.0657,0 -0.121,-0.0032 -0.1656,-0.0084 -0.0446,-0.0056 -0.0794,-0.0129 -0.1044,-0.0239 -0.025,-0.0096 -0.0426,-0.0236 -0.0534,-0.0386 -0.0106,-0.0161 -0.016,-0.0344 -0.016,-0.0557l0 -2.1467c0,-0.0817 0.001,-0.1622 0.0025,-0.2406 0.002,-0.0784 0.0047,-0.1484 0.0083,-0.2095l-0.0054 0c-0.0134,0.03 -0.0303,0.0634 -0.049,0.103 -0.0198,0.0386 -0.0401,0.0796 -0.0615,0.1226 -0.0223,0.0429 -0.0446,0.0871 -0.0695,0.1321 -0.0241,0.0451 -0.0483,0.0882 -0.0733,0.1301l-1.1744 2.112c-0.0142,0.0237 -0.0284,0.0431 -0.0436,0.0602 -0.0142,0.0171 -0.0338,0.0302 -0.0571,0.0398 -0.0231,0.0086 -0.0525,0.0152 -0.0865,0.0182 -0.0338,0.0031 -0.0774,0.0054 -0.1318,0.0054 -0.0677,0 -0.1221,-0.0032 -0.164,-0.0084 -0.0418,-0.0056 -0.0749,-0.0129 -0.098,-0.0239 -0.0232,-0.0096 -0.0394,-0.0236 -0.048,-0.0407 -0.009,-0.0162 -0.0137,-0.0365 -0.0137,-0.0592l0 -3.8527c0,-0.0215 0.0054,-0.0396 0.0171,-0.0557 0.0116,-0.015 0.0302,-0.029 0.0579,-0.0388 0.0267,-0.0106 0.0615,-0.0181 0.1051,-0.0235 0.0438,-0.0056 0.099,-0.0086 0.1649,-0.0086 0.0679,0 0.123,0.003 0.1668,0.0086 0.0435,0.0054 0.0782,0.0129 0.1042,0.0235 0.0267,0.0098 0.0446,0.0238 0.0553,0.0388 0.0106,0.0161 0.016,0.0342 0.016,0.0557l0 2.1584c0,0.0679 -0.001,0.1388 -0.0027,0.2151 -0.0017,0.0751 -0.0044,0.1481 -0.0079,0.22l0.0052 0c0.0294,-0.0634 0.0669,-0.1385 0.1124,-0.2266 0.0454,-0.0882 0.0917,-0.1741 0.1407,-0.2588l1.1744 -2.1112c0.0125,-0.0215 0.026,-0.0397 0.0394,-0.0559 0.0143,-0.015 0.0329,-0.0279 0.0562,-0.0386 0.024,-0.0108 0.0524,-0.0183 0.0872,-0.0227 0.0348,-0.0042 0.0794,-0.0063 0.1338,-0.0063 0.0659,0 0.1193,0.003 0.1604,0.0086 0.041,0.0054 0.0731,0.0129 0.0981,0.0235 0.024,0.0098 0.0409,0.0238 0.0507,0.0388 0.0098,0.0161 0.0142,0.0353 0.0142,0.059l0 3.855zm5.6544 -0.0033c0,0.0235 -0.0054,0.0429 -0.0159,0.059 -0.0108,0.015 -0.0296,0.029 -0.0562,0.0386 -0.0269,0.011 -0.0634,0.0183 -0.108,0.0239 -0.0453,0.0052 -0.1041,0.0084 -0.1754,0.0084 -0.075,0 -0.1355,-0.0032 -0.1809,-0.0084 -0.0463,-0.0056 -0.0838,-0.0129 -0.1114,-0.0248 -0.0277,-0.0119 -0.049,-0.0281 -0.0623,-0.0473 -0.0144,-0.0204 -0.0242,-0.0452 -0.0313,-0.0742l-0.272 -0.9067c-0.0382,-0.132 -0.0782,-0.2429 -0.1201,-0.3321 -0.0419,-0.0892 -0.0872,-0.161 -0.1382,-0.217 -0.0507,-0.0557 -0.1078,-0.0945 -0.172,-0.1182 -0.0649,-0.0226 -0.1372,-0.0344 -0.2173,-0.0344l-0.1534 0 0 1.6309c0,0.0227 -0.0054,0.0419 -0.0159,0.058 -0.0108,0.015 -0.0285,0.0291 -0.0554,0.041 -0.0257,0.0119 -0.0605,0.0192 -0.1043,0.0248 -0.0435,0.0052 -0.0988,0.0084 -0.1665,0.0084 -0.0661,0 -0.1212,-0.0032 -0.1658,-0.0084 -0.0446,-0.0056 -0.0804,-0.0129 -0.1061,-0.0248 -0.0258,-0.0119 -0.0446,-0.026 -0.0561,-0.041 -0.0116,-0.0161 -0.0169,-0.0353 -0.0169,-0.058l0 -3.8494c0,-0.0237 0.0053,-0.0429 0.0169,-0.059 0.0115,-0.015 0.0303,-0.029 0.0561,-0.0388 0.0257,-0.0106 0.0615,-0.0181 0.1061,-0.0235 0.0446,-0.0056 0.0997,-0.0086 0.1658,-0.0086 0.0677,0 0.123,0.003 0.1665,0.0086 0.0438,0.0054 0.0786,0.0129 0.1043,0.0235 0.0269,0.0098 0.0446,0.0238 0.0554,0.0388 0.0105,0.0161 0.0159,0.0353 0.0159,0.059l0 1.529 0.1534 0c0.0784,0 0.1468,-0.0119 0.2066,-0.0379 0.059,-0.0246 0.1124,-0.0644 0.1604,-0.1191 0.0483,-0.0548 0.0919,-0.1257 0.1311,-0.2128 0.0383,-0.087 0.0765,-0.1943 0.1132,-0.3223l0.2272 -0.8121c0.0088,-0.0291 0.0186,-0.0536 0.0311,-0.0742 0.0125,-0.0194 0.0321,-0.0354 0.059,-0.0473 0.0265,-0.0117 0.0623,-0.0192 0.1069,-0.0246 0.0445,-0.0056 0.1041,-0.0086 0.1791,-0.0086 0.0676,0 0.1239,0.003 0.1683,0.0086 0.0446,0.0054 0.0794,0.0117 0.1044,0.0213 0.025,0.0098 0.0419,0.0227 0.0507,0.0377 0.009,0.0162 0.0135,0.0356 0.0135,0.059 0,0.0269 -0.0045,0.0604 -0.0118,0.0999 -0.0078,0.0398 -0.0211,0.0925 -0.0409,0.158l-0.2272 0.7242c-0.0418,0.1343 -0.0837,0.2481 -0.1247,0.3428 -0.0421,0.0944 -0.0867,0.1751 -0.132,0.2404 -0.0463,0.0667 -0.0953,0.1203 -0.1461,0.1624 -0.0517,0.0419 -0.1087,0.0761 -0.1712,0.1042l0 0.0033c0.0696,0.0353 0.133,0.0751 0.1891,0.1203 0.0569,0.0451 0.1095,0.103 0.1595,0.1718 0.0488,0.0699 0.0971,0.1547 0.1417,0.2546 0.0453,0.1011 0.0916,0.2247 0.1389,0.3717l0.2764 0.8435c0.0284,0.0859 0.0445,0.1451 0.0497,0.1783 0.0054,0.0321 0.0081,0.059 0.0081,0.0796zm3.2769 -0.1977c0.0204,0.0751 0.0338,0.1352 0.0392,0.1793 0.0044,0.0442 -0.0019,0.0774 -0.0215,0.0989 -0.0186,0.0225 -0.0525,0.0354 -0.1017,0.041 -0.0488,0.0052 -0.1157,0.0084 -0.2012,0.0084 -0.0882,0 -0.1578,-0.0023 -0.2077,-0.0054 -0.049,-0.003 -0.0873,-0.0096 -0.113,-0.0182 -0.026,-0.0096 -0.0446,-0.0227 -0.0554,-0.0398 -0.0098,-0.0171 -0.0188,-0.0386 -0.0259,-0.0665l-0.2272 -0.8177 -1.269 0 -0.2139 0.7962c-0.0071,0.029 -0.0159,0.0538 -0.0276,0.074 -0.0106,0.0194 -0.0294,0.0355 -0.0544,0.0473 -0.025,0.0107 -0.0613,0.0194 -0.1069,0.0238 -0.0463,0.004 -0.1068,0.0063 -0.1818,0.0063 -0.0801,0 -0.1426,-0.0032 -0.1879,-0.0096 -0.0456,-0.0065 -0.0767,-0.0215 -0.0938,-0.0463 -0.0177,-0.0236 -0.0239,-0.0578 -0.0187,-0.1021 0.0054,-0.044 0.0187,-0.103 0.0394,-0.176l1.0417 -3.6132c0.0107,-0.0354 0.0222,-0.0644 0.0365,-0.0871 0.0142,-0.0213 0.0365,-0.0386 0.0669,-0.0503 0.0301,-0.011 0.0722,-0.0183 0.1266,-0.0216 0.0534,-0.0032 0.1255,-0.0053 0.2137,-0.0053 0.1024,0 0.1845,0.0021 0.246,0.0053 0.0607,0.0033 0.108,0.0106 0.1416,0.0216 0.0341,0.0117 0.059,0.029 0.0731,0.0524 0.0152,0.0227 0.0276,0.0538 0.0384,0.0948l1.0445 3.6098zm-1.5515 -2.9868l-0.0027 0 -0.4777 1.7308 0.958 0 -0.4776 -1.7308zm4.5252 3.1845c0,0.0235 -0.0052,0.0429 -0.016,0.059 -0.0106,0.015 -0.0294,0.029 -0.0561,0.0386 -0.0267,0.011 -0.0632,0.0183 -0.1078,0.0239 -0.0456,0.0052 -0.1042,0.0084 -0.1757,0.0084 -0.0747,0 -0.1355,-0.0032 -0.1808,-0.0084 -0.0463,-0.0056 -0.0838,-0.0129 -0.1115,-0.0248 -0.0277,-0.0119 -0.049,-0.0281 -0.0624,-0.0473 -0.0141,-0.0204 -0.0239,-0.0452 -0.0312,-0.0742l-0.2717 -0.9067c-0.0383,-0.132 -0.0784,-0.2429 -0.1203,-0.3321 -0.0417,-0.0892 -0.0875,-0.161 -0.1382,-0.217 -0.0507,-0.0557 -0.1078,-0.0945 -0.172,-0.1182 -0.065,-0.0226 -0.137,-0.0344 -0.2174,-0.0344l-0.1533 0 0 1.6309c0,0.0227 -0.0052,0.0419 -0.016,0.058 -0.0106,0.015 -0.0286,0.0291 -0.0551,0.041 -0.026,0.0119 -0.0606,0.0192 -0.1044,0.0248 -0.0436,0.0052 -0.0988,0.0084 -0.1666,0.0084 -0.0659,0 -0.1213,-0.0032 -0.1659,-0.0084 -0.0444,-0.0056 -0.0801,-0.0129 -0.1059,-0.0248 -0.0259,-0.0119 -0.0446,-0.026 -0.0563,-0.041 -0.0115,-0.0161 -0.0167,-0.0353 -0.0167,-0.058l0 -3.8494c0,-0.0237 0.0052,-0.0429 0.0167,-0.059 0.0117,-0.015 0.0304,-0.029 0.0563,-0.0388 0.0258,-0.0106 0.0615,-0.0181 0.1059,-0.0235 0.0446,-0.0056 0.1,-0.0086 0.1659,-0.0086 0.0678,0 0.123,0.003 0.1666,0.0086 0.0438,0.0054 0.0784,0.0129 0.1044,0.0235 0.0265,0.0098 0.0445,0.0238 0.0551,0.0388 0.0108,0.0161 0.016,0.0353 0.016,0.059l0 1.529 0.1533 0c0.0784,0 0.147,-0.0119 0.2068,-0.0379 0.0588,-0.0246 0.1122,-0.0644 0.1603,-0.1191 0.0482,-0.0548 0.0919,-0.1257 0.1311,-0.2128 0.0384,-0.087 0.0766,-0.1943 0.1132,-0.3223l0.2273 -0.8121c0.0089,-0.0291 0.0187,-0.0536 0.0311,-0.0742 0.0125,-0.0194 0.0321,-0.0354 0.0589,-0.0473 0.0267,-0.0117 0.0622,-0.0192 0.1068,-0.0246 0.0446,-0.0056 0.1044,-0.0086 0.1791,-0.0086 0.0679,0 0.124,0.003 0.1686,0.0086 0.0446,0.0054 0.0793,0.0117 0.1041,0.0213 0.025,0.0098 0.0421,0.0227 0.0508,0.0377 0.009,0.0162 0.0136,0.0356 0.0136,0.059 0,0.0269 -0.0046,0.0604 -0.0117,0.0999 -0.0081,0.0398 -0.0215,0.0925 -0.0409,0.158l-0.2274 0.7242c-0.0419,0.1343 -0.0838,0.2481 -0.1247,0.3428 -0.0419,0.0944 -0.0865,0.1751 -0.1319,0.2404 -0.0463,0.0667 -0.0955,0.1203 -0.1462,0.1624 -0.0517,0.0419 -0.1088,0.0761 -0.1711,0.1042l0 0.0033c0.0694,0.0353 0.1326,0.0751 0.189,0.1203 0.057,0.0451 0.1097,0.103 0.1595,0.1718 0.049,0.0699 0.097,0.1547 0.1416,0.2546 0.0454,0.1011 0.0919,0.2247 0.1391,0.3717l0.2762 0.8435c0.0286,0.0859 0.0446,0.1451 0.05,0.1783 0.0052,0.0321 0.0079,0.059 0.0079,0.0796zm5.6749 0.0033c0,0.0213 -0.0052,0.0396 -0.0169,0.0557 -0.0115,0.015 -0.0304,0.029 -0.0561,0.0386 -0.0259,0.011 -0.0615,0.0183 -0.1061,0.0239 -0.0436,0.0052 -0.0988,0.0084 -0.1656,0.0084 -0.066,0 -0.1213,-0.0032 -0.1659,-0.0084 -0.0446,-0.0056 -0.0794,-0.0129 -0.1042,-0.0239 -0.025,-0.0096 -0.0428,-0.0236 -0.0534,-0.0386 -0.0108,-0.0161 -0.0161,-0.0344 -0.0161,-0.0557l0 -2.1467c0,-0.0817 0.0009,-0.1622 0.0027,-0.2406 0.0017,-0.0784 0.0044,-0.1484 0.008,-0.2095l-0.0054 0c-0.0134,0.03 -0.0301,0.0634 -0.049,0.103 -0.0196,0.0386 -0.0401,0.0796 -0.0615,0.1226 -0.0223,0.0429 -0.0445,0.0871 -0.0695,0.1321 -0.0241,0.0451 -0.0483,0.0882 -0.0731,0.1301l-1.1746 2.112c-0.0142,0.0237 -0.0284,0.0431 -0.0436,0.0602 -0.0142,0.0171 -0.0338,0.0302 -0.0571,0.0398 -0.023,0.0086 -0.0525,0.0152 -0.0865,0.0182 -0.0338,0.0031 -0.0774,0.0054 -0.1318,0.0054 -0.0677,0 -0.122,-0.0032 -0.1639,-0.0084 -0.0419,-0.0056 -0.075,-0.0129 -0.098,-0.0239 -0.0231,-0.0096 -0.0393,-0.0236 -0.0481,-0.0407 -0.009,-0.0162 -0.0134,-0.0365 -0.0134,-0.0592l0 -3.8527c0,-0.0215 0.0053,-0.0396 0.0169,-0.0557 0.0117,-0.015 0.0303,-0.029 0.0578,-0.0388 0.0269,-0.0106 0.0617,-0.0181 0.1051,-0.0235 0.0439,-0.0056 0.099,-0.0086 0.1649,-0.0086 0.0679,0 0.123,0.003 0.1668,0.0086 0.0437,0.0054 0.0785,0.0129 0.1042,0.0235 0.0267,0.0098 0.0446,0.0238 0.0554,0.0388 0.0105,0.0161 0.0159,0.0342 0.0159,0.0557l0 2.1584c0,0.0679 -0.0008,0.1388 -0.0027,0.2151 -0.0017,0.0751 -0.0044,0.1481 -0.0079,0.22l0.0052 0c0.0296,-0.0634 0.0669,-0.1385 0.1125,-0.2266 0.0453,-0.0882 0.0916,-0.1741 0.1406,-0.2588l1.1746 -2.1112c0.0125,-0.0215 0.026,-0.0397 0.0393,-0.0559 0.0142,-0.015 0.0328,-0.0279 0.0561,-0.0386 0.024,-0.0108 0.0524,-0.0183 0.0872,-0.0227 0.0348,-0.0042 0.0794,-0.0063 0.1338,-0.0063 0.0659,0 0.1193,0.003 0.1605,0.0086 0.0409,0.0054 0.073,0.0129 0.098,0.0235 0.024,0.0098 0.0409,0.0238 0.0507,0.0388 0.0098,0.0161 0.0142,0.0353 0.0142,0.059l0 3.855zm3.3732 -0.0056c0,0.0206 -0.0054,0.0398 -0.0171,0.0559 -0.0113,0.0171 -0.0302,0.0312 -0.0559,0.041 -0.026,0.0107 -0.0607,0.0192 -0.1044,0.0257 -0.0436,0.0064 -0.098,0.0096 -0.1649,0.0096 -0.0678,0 -0.1237,-0.0032 -0.1683,-0.0096 -0.0438,-0.0065 -0.0794,-0.015 -0.1044,-0.0257 -0.025,-0.0098 -0.0436,-0.0239 -0.0544,-0.041 -0.0115,-0.0161 -0.0169,-0.0353 -0.0169,-0.0559l0 -1.647 -1.2636 0 0 1.647c0,0.0206 -0.0053,0.0398 -0.0161,0.0559 -0.0106,0.0171 -0.0285,0.0312 -0.0552,0.041 -0.0259,0.0107 -0.0607,0.0192 -0.1043,0.0257 -0.0436,0.0064 -0.099,0.0096 -0.1666,0.0096 -0.066,0 -0.1211,-0.0032 -0.1657,-0.0096 -0.0446,-0.0065 -0.0803,-0.015 -0.1063,-0.0257 -0.0257,-0.0098 -0.0444,-0.0239 -0.0559,-0.041 -0.0117,-0.0161 -0.0171,-0.0353 -0.0171,-0.0559l0 -3.8471c0,-0.0206 0.0054,-0.04 0.0171,-0.0561 0.0115,-0.0171 0.0302,-0.031 0.0559,-0.0408 0.026,-0.0105 0.0617,-0.0194 0.1063,-0.0257 0.0446,-0.0066 0.0997,-0.0096 0.1657,-0.0096 0.0676,0 0.123,0.003 0.1666,0.0096 0.0436,0.0063 0.0784,0.0152 0.1043,0.0257 0.0267,0.0098 0.0446,0.0237 0.0552,0.0408 0.0108,0.0161 0.0161,0.0355 0.0161,0.0561l0 1.4954 1.2636 0 0 -1.4954c0,-0.0206 0.0054,-0.04 0.0169,-0.0561 0.0108,-0.0171 0.0294,-0.031 0.0544,-0.0408 0.025,-0.0105 0.0606,-0.0194 0.1044,-0.0257 0.0446,-0.0066 0.1005,-0.0096 0.1683,-0.0096 0.0669,0 0.1213,0.003 0.1649,0.0096 0.0437,0.0063 0.0784,0.0152 0.1044,0.0257 0.0257,0.0098 0.0446,0.0237 0.0559,0.0408 0.0117,0.0161 0.0171,0.0355 0.0171,0.0561l0 3.8471zm3.0726 -0.5039c0,0.0528 -0.0009,0.0969 -0.0036,0.1334 -0.0027,0.0365 -0.0071,0.0686 -0.0115,0.0945 -0.0052,0.0269 -0.0123,0.0494 -0.0214,0.0677 -0.0088,0.0194 -0.0223,0.0407 -0.0419,0.0644 -0.0186,0.0247 -0.0561,0.0547 -0.1105,0.0935 -0.0553,0.0375 -0.1222,0.074 -0.2014,0.1084 -0.0794,0.0344 -0.1693,0.0635 -0.2717,0.0859 -0.1017,0.0239 -0.2112,0.0356 -0.3298,0.0356 -0.2316,0 -0.4401,-0.044 -0.6265,-0.1299 -0.1863,-0.0859 -0.345,-0.2139 -0.4751,-0.3846 -0.1309,-0.1722 -0.2306,-0.3847 -0.3002,-0.6415 -0.0696,-0.2558 -0.1051,-0.5535 -0.1051,-0.894 0,-0.3458 0.0384,-0.6532 0.1149,-0.9217 0.0767,-0.2685 0.1837,-0.4941 0.3217,-0.6769 0.1372,-0.1826 0.3021,-0.3211 0.4945,-0.4157 0.1926,-0.0945 0.4038,-0.1418 0.6355,-0.1418 0.0944,0 0.1845,0.0096 0.2718,0.029 0.0874,0.0183 0.1676,0.0431 0.2414,0.0742 0.0742,0.03 0.141,0.0653 0.1997,0.1053 0.059,0.0396 0.1007,0.074 0.1239,0.1021 0.024,0.0278 0.0402,0.0513 0.0481,0.0709 0.0088,0.0192 0.0161,0.0428 0.0213,0.0718 0.0056,0.03 0.009,0.0646 0.0117,0.1042 0.0027,0.0398 0.0035,0.0892 0.0035,0.1484 0,0.0622 -0.0018,0.1159 -0.0044,0.1599 -0.0035,0.0442 -0.0098,0.0795 -0.0187,0.1076 -0.0088,0.0267 -0.0186,0.0473 -0.0311,0.059 -0.0125,0.0129 -0.026,0.0194 -0.0419,0.0194 -0.026,0 -0.059,-0.0183 -0.099,-0.0548 -0.0402,-0.0365 -0.0919,-0.0784 -0.156,-0.1235 -0.0633,-0.0452 -0.139,-0.0859 -0.2262,-0.1227 -0.0883,-0.0365 -0.1934,-0.0545 -0.3156,-0.0545 -0.1338,0 -0.2529,0.0332 -0.3582,0.0987 -0.1061,0.0667 -0.1951,0.1611 -0.2691,0.2837 -0.0742,0.1224 -0.1301,0.2708 -0.1685,0.4447 -0.0383,0.1751 -0.0581,0.3707 -0.0581,0.5887 0,0.2396 0.0208,0.447 0.0617,0.6221 0.041,0.175 0.0998,0.3192 0.1755,0.433 0.0759,0.1128 0.1668,0.1977 0.2736,0.2536 0.1069,0.0546 0.2282,0.0827 0.3617,0.0827 0.1223,0 0.2274,-0.0171 0.3156,-0.0515 0.0892,-0.0344 0.1657,-0.0731 0.2291,-0.115 0.0632,-0.042 0.1159,-0.0795 0.1568,-0.1141 0.0409,-0.0331 0.0721,-0.0492 0.0953,-0.0492 0.0169,0 0.0312,0.0031 0.041,0.0117 0.0107,0.0087 0.0198,0.0258 0.0269,0.0506 0.0069,0.0257 0.0115,0.0601 0.0151,0.1051 0.0035,0.0451 0.0052,0.1053 0.0052,0.1816zm2.7421 -3.1166c0,0.0613 -0.0027,0.1128 -0.0071,0.1558 -0.0044,0.0429 -0.0108,0.0784 -0.0196,0.1042 -0.0089,0.0257 -0.0196,0.0463 -0.0321,0.058 -0.0133,0.0129 -0.0275,0.0192 -0.0436,0.0192l-0.8456 0 0 3.2833c0,0.0206 -0.0054,0.0398 -0.017,0.0559 -0.0117,0.0171 -0.0303,0.0312 -0.0563,0.041 -0.0257,0.0107 -0.0615,0.0192 -0.106,0.0257 -0.0435,0.0064 -0.0988,0.0096 -0.1657,0.0096 -0.0661,0 -0.1213,-0.0032 -0.1657,-0.0096 -0.0438,-0.0065 -0.0793,-0.015 -0.1053,-0.0257 -0.0267,-0.0098 -0.0453,-0.0239 -0.0561,-0.041 -0.0115,-0.0161 -0.0169,-0.0353 -0.0169,-0.0559l0 -3.2833 -0.8466 0c-0.0169,0 -0.0321,-0.0063 -0.0436,-0.0192 -0.0125,-0.0117 -0.0233,-0.0323 -0.0321,-0.058 -0.0081,-0.0258 -0.0152,-0.0613 -0.0196,-0.1042 -0.0035,-0.043 -0.0063,-0.0945 -0.0063,-0.1558 0,-0.0623 0.0028,-0.1161 0.0063,-0.1601 0.0044,-0.044 0.0115,-0.0796 0.0196,-0.1053 0.0088,-0.0269 0.0196,-0.0452 0.0321,-0.0569 0.0115,-0.0117 0.0267,-0.0173 0.0436,-0.0173l2.3812 0c0.0161,0 0.0303,0.0056 0.0436,0.0173 0.0125,0.0117 0.0232,0.03 0.0321,0.0569 0.0088,0.0257 0.0152,0.0613 0.0196,0.1053 0.0044,0.044 0.0071,0.0978 0.0071,0.1601zm2.7129 0.8971c0,0.2287 -0.0295,0.432 -0.0892,0.608 -0.059,0.1763 -0.1453,0.3244 -0.2585,0.4449 -0.1132,0.1213 -0.2522,0.2126 -0.4163,0.276 -0.1649,0.0625 -0.3582,0.0946 -0.5809,0.0946l-0.2816 0 0 1.2999c0,0.0206 -0.0063,0.0398 -0.0169,0.0559 -0.0117,0.0171 -0.0304,0.0312 -0.0563,0.041 -0.0265,0.0107 -0.0613,0.0192 -0.1051,0.0257 -0.0427,0.0064 -0.0988,0.0096 -0.1665,0.0096 -0.0661,0 -0.1214,-0.0032 -0.166,-0.0096 -0.0444,-0.0065 -0.08,-0.015 -0.1059,-0.0257 -0.0258,-0.0098 -0.0446,-0.0239 -0.0544,-0.041 -0.0108,-0.0161 -0.0159,-0.0353 -0.0159,-0.0559l0 -3.6647c0,-0.0977 0.0213,-0.1717 0.0641,-0.2212 0.0427,-0.0494 0.0988,-0.0742 0.1684,-0.0742l0.7958 0c0.0802,0 0.1568,0.0032 0.2291,0.0107 0.0721,0.0075 0.1586,0.0239 0.2593,0.0473 0.1016,0.0248 0.2031,0.069 0.3065,0.1344 0.1042,0.0645 0.1926,0.1472 0.2656,0.2471 0.073,0.0988 0.1284,0.2158 0.1666,0.3492 0.0384,0.1332 0.0581,0.2825 0.0581,0.448zm-0.7184 0.0601c0,-0.143 -0.0206,-0.26 -0.0623,-0.3524 -0.0419,-0.0923 -0.0938,-0.1613 -0.1543,-0.2053 -0.0606,-0.044 -0.1247,-0.0707 -0.1916,-0.0826 -0.0677,-0.0117 -0.1363,-0.0171 -0.2076,-0.0171l-0.2923 0 0 1.3816 0.3073 0c0.1097,0 0.2016,-0.0183 0.2754,-0.0538 0.074,-0.0354 0.1347,-0.0859 0.1818,-0.1492 0.0473,-0.0645 0.083,-0.1408 0.1071,-0.23 0.0242,-0.0892 0.0365,-0.1859 0.0365,-0.2912zm2.8276 1.6524c-0.0765,0.2353 -0.1523,0.4297 -0.2262,0.5823 -0.0742,0.1538 -0.1524,0.2739 -0.2372,0.3631 -0.0847,0.0891 -0.1764,0.1514 -0.2771,0.186 -0.0998,0.0354 -0.2139,0.0525 -0.3433,0.0525 -0.047,0 -0.0926,-0.0043 -0.1379,-0.0118 -0.0454,-0.0063 -0.0883,-0.0173 -0.1284,-0.029 -0.04,-0.0129 -0.0748,-0.0278 -0.1042,-0.044 -0.0296,-0.0173 -0.0517,-0.0334 -0.0651,-0.0475 -0.0143,-0.0149 -0.025,-0.0309 -0.0329,-0.0492 -0.0081,-0.0173 -0.0144,-0.0409 -0.0198,-0.0709 -0.0052,-0.029 -0.0086,-0.0667 -0.0113,-0.1118 -0.0027,-0.0452 -0.0037,-0.1009 -0.0037,-0.1676 0,-0.1224 0.0071,-0.2085 0.0223,-0.2598 0.0142,-0.0517 0.0373,-0.0775 0.0684,-0.0775 0.0162,0 0.0333,0.0075 0.0529,0.0225 0.0186,0.014 0.0417,0.0302 0.0686,0.0473 0.0275,0.0161 0.0586,0.0311 0.0943,0.0451 0.0358,0.0139 0.0777,0.0204 0.1265,0.0204 0.0367,0 0.0703,-0.0042 0.1017,-0.0138 0.0311,-0.0098 0.0615,-0.0279 0.0889,-0.0548 0.0277,-0.0281 0.0556,-0.0655 0.084,-0.1151 0.0275,-0.0492 0.0571,-0.1138 0.0882,-0.1945l-1.1121 -2.7288c-0.0242,-0.0644 -0.0385,-0.1172 -0.0429,-0.1589 -0.0044,-0.041 0.0037,-0.0721 0.025,-0.0956 0.0206,-0.0228 0.0561,-0.0388 0.1051,-0.0451 0.05,-0.0077 0.1167,-0.0119 0.1995,-0.0119 0.0821,0 0.1472,0.0021 0.1962,0.0063 0.049,0.0044 0.0882,0.0129 0.1177,0.0269 0.0294,0.0138 0.0526,0.0333 0.0678,0.0602 0.0159,0.0257 0.0311,0.0601 0.0471,0.102l0.4749 1.2334c0.0526,0.1332 0.1016,0.2643 0.1489,0.3954 0.0473,0.1312 0.0926,0.2644 0.1355,0.3985l0.0079 0c0.0348,-0.1406 0.0722,-0.2782 0.1114,-0.4114 0.0392,-0.1332 0.0821,-0.2729 0.1292,-0.4199l0.3888 -1.2529c0.0088,-0.029 0.0203,-0.0526 0.0338,-0.0709 0.0142,-0.0173 0.0346,-0.0311 0.0632,-0.0419 0.0277,-0.0107 0.0659,-0.0171 0.1149,-0.0204 0.0483,-0.0032 0.1123,-0.0053 0.1899,-0.0053 0.0802,0 0.1444,0.003 0.1907,0.0096 0.0472,0.0063 0.0811,0.0182 0.1024,0.0365 0.0206,0.0173 0.0304,0.0419 0.0286,0.0742 -0.0019,0.0311 -0.0107,0.072 -0.0267,0.1224l-0.9055 2.7257zm5.2579 1.0109c0,0.0206 -0.0044,0.0398 -0.0142,0.0559 -0.0098,0.0171 -0.0267,0.0312 -0.0527,0.041 -0.0248,0.0107 -0.0588,0.0192 -0.0997,0.0257 -0.0419,0.0064 -0.0954,0.0096 -0.1595,0.0096 -0.0625,0 -0.115,-0.0032 -0.1571,-0.0096 -0.0417,-0.0065 -0.0747,-0.015 -0.0987,-0.0257 -0.025,-0.0098 -0.0419,-0.0239 -0.0525,-0.041 -0.0108,-0.0161 -0.0152,-0.0353 -0.0152,-0.0559l0 -3.3142 -0.0054 0 -0.9795 3.3109c-0.0071,0.0269 -0.0177,0.0496 -0.0337,0.0679 -0.0161,0.0173 -0.0374,0.0311 -0.0643,0.0419 -0.0268,0.0107 -0.0613,0.0173 -0.1032,0.0203 -0.041,0.0031 -0.0919,0.0054 -0.1507,0.0054 -0.0598,0 -0.1096,-0.0032 -0.1515,-0.0084 -0.0419,-0.0056 -0.0766,-0.0129 -0.1034,-0.0248 -0.0267,-0.0119 -0.048,-0.026 -0.0641,-0.0431 -0.0152,-0.0161 -0.0258,-0.0365 -0.0312,-0.0592l-0.9455 -3.3109 -0.0044 0 0 3.3142c0,0.0206 -0.0054,0.0398 -0.0152,0.0559 -0.009,0.0171 -0.0269,0.0312 -0.0534,0.041 -0.026,0.0107 -0.059,0.0192 -0.1,0.0257 -0.0409,0.0064 -0.0936,0.0096 -0.1587,0.0096 -0.0623,0 -0.1149,-0.0032 -0.1559,-0.0096 -0.0419,-0.0065 -0.0757,-0.015 -0.1007,-0.0257 -0.0257,-0.0098 -0.0426,-0.0239 -0.0524,-0.041 -0.0099,-0.0161 -0.0145,-0.0353 -0.0145,-0.0559l0 -3.6292c0,-0.1074 0.0233,-0.1889 0.0706,-0.246 0.0472,-0.0571 0.1095,-0.0849 0.1879,-0.0849l0.4492 0c0.0803,0 0.1487,0.0077 0.2058,0.0238 0.058,0.016 0.1078,0.0419 0.1489,0.0782 0.0419,0.0367 0.0765,0.085 0.1051,0.1451 0.0277,0.0602 0.0517,0.1334 0.0731,0.2214l0.7308 2.4271 0.0106 0 0.7566 -2.4207c0.0233,-0.0881 0.0483,-0.1622 0.0748,-0.2235 0.0269,-0.0602 0.058,-0.1094 0.0938,-0.1471 0.0355,-0.0386 0.0784,-0.0645 0.1264,-0.0805 0.049,-0.0161 0.1061,-0.0238 0.1701,-0.0238l0.4618 0c0.0473,0 0.0883,0.0077 0.1221,0.0215 0.0338,0.0152 0.0615,0.0365 0.0828,0.0655 0.0223,0.0279 0.0384,0.0623 0.05,0.1032 0.0115,0.041 0.0169,0.0881 0.0169,0.1407l0 3.6292zm2.7386 -0.2116c0,0.0613 -0.0019,0.1119 -0.0064,0.1526 -0.0044,0.0407 -0.0105,0.0742 -0.0196,0.0997 -0.0088,0.025 -0.0194,0.0431 -0.033,0.055 -0.0123,0.0119 -0.0275,0.0171 -0.0427,0.0171l-1.6968 0c-0.0578,0 -0.106,-0.0204 -0.1452,-0.0611 -0.0391,-0.0409 -0.0587,-0.1074 -0.0587,-0.1999l0 -3.5507c0,-0.0925 0.0196,-0.1592 0.0587,-0.1999 0.0392,-0.0408 0.0874,-0.0613 0.1452,-0.0613l1.6863 0c0.0159,0 0.0294,0.0056 0.0419,0.0161 0.0124,0.0098 0.0222,0.0281 0.0311,0.0548 0.0088,0.0259 0.015,0.0601 0.0196,0.1011 0.0044,0.0409 0.0071,0.0922 0.0071,0.1557 0,0.058 -0.0027,0.1085 -0.0071,0.1493 -0.0046,0.0409 -0.0108,0.0742 -0.0196,0.099 -0.0089,0.0257 -0.0187,0.044 -0.0311,0.0547 -0.0125,0.0119 -0.026,0.0171 -0.0419,0.0171l-1.206 0 0 0.995 1.0205 0c0.0159,0 0.0304,0.0065 0.0436,0.0171 0.0125,0.0119 0.0233,0.0301 0.0321,0.0538 0.0091,0.0248 0.0152,0.0571 0.0196,0.0978 0.0044,0.0407 0.0062,0.0901 0.0062,0.1493 0,0.0613 -0.0018,0.1117 -0.0062,0.1515 -0.0044,0.0397 -0.0105,0.072 -0.0196,0.0955 -0.0088,0.0248 -0.0196,0.0421 -0.0321,0.0517 -0.0132,0.0107 -0.0277,0.0161 -0.0436,0.0161l-1.0205 0 0 1.1483 1.2165 0c0.0152,0 0.0304,0.0067 0.0427,0.0185 0.0136,0.0105 0.0242,0.029 0.033,0.0547 0.0091,0.0248 0.0152,0.0581 0.0196,0.099 0.0045,0.0407 0.0064,0.0923 0.0064,0.1524z"/>
    <path id="_82665400" class="fil0" d="M49.0641 20.6683c0,0.0206 -0.0054,0.04 -0.0171,0.0561 -0.0116,0.0171 -0.0302,0.0312 -0.056,0.0408 -0.0259,0.0107 -0.0607,0.0194 -0.1043,0.0257 -0.0438,0.0066 -0.098,0.0096 -0.1649,0.0096 -0.0679,0 -0.124,-0.003 -0.1684,-0.0096 -0.0438,-0.0063 -0.0793,-0.015 -0.1043,-0.0257 -0.025,-0.0096 -0.0436,-0.0237 -0.0544,-0.0408 -0.0115,-0.0161 -0.0169,-0.0355 -0.0169,-0.0561l0 -1.6468 -1.2638 0 0 1.6468c0,0.0206 -0.0054,0.04 -0.016,0.0561 -0.0105,0.0171 -0.0284,0.0312 -0.0551,0.0408 -0.026,0.0107 -0.0608,0.0194 -0.1044,0.0257 -0.0436,0.0066 -0.0989,0.0096 -0.1666,0.0096 -0.0661,0 -0.1213,-0.003 -0.1657,-0.0096 -0.0445,-0.0063 -0.0803,-0.015 -0.106,-0.0257 -0.026,-0.0096 -0.0446,-0.0237 -0.0562,-0.0408 -0.0117,-0.0161 -0.0171,-0.0355 -0.0171,-0.0561l0 -3.8471c0,-0.0206 0.0054,-0.0398 0.0171,-0.0559 0.0116,-0.0171 0.0302,-0.0312 0.0562,-0.041 0.0257,-0.0105 0.0615,-0.0192 0.106,-0.0257 0.0444,-0.0064 0.0996,-0.0096 0.1657,-0.0096 0.0677,0 0.123,0.0032 0.1666,0.0096 0.0436,0.0065 0.0784,0.0152 0.1044,0.0257 0.0267,0.0098 0.0446,0.0239 0.0551,0.041 0.0106,0.0161 0.016,0.0353 0.016,0.0559l0 1.4954 1.2638 0 0 -1.4954c0,-0.0206 0.0054,-0.0398 0.0169,-0.0559 0.0108,-0.0171 0.0294,-0.0312 0.0544,-0.041 0.025,-0.0105 0.0605,-0.0192 0.1043,-0.0257 0.0444,-0.0064 0.1005,-0.0096 0.1684,-0.0096 0.0669,0 0.1211,0.0032 0.1649,0.0096 0.0436,0.0065 0.0784,0.0152 0.1043,0.0257 0.0258,0.0098 0.0444,0.0239 0.056,0.041 0.0117,0.0161 0.0171,0.0353 0.0171,0.0559l0 3.8471zm2.9844 -3.6205c0,0.0613 -0.0027,0.1128 -0.0071,0.1558 -0.0045,0.0429 -0.0108,0.0784 -0.0196,0.1042 -0.0091,0.0258 -0.0196,0.0463 -0.0321,0.058 -0.0135,0.0129 -0.0277,0.0194 -0.0439,0.0194l-0.8456 0 0 3.2831c0,0.0206 -0.0053,0.04 -0.0169,0.0561 -0.0115,0.0171 -0.0301,0.0312 -0.0561,0.0408 -0.0259,0.0107 -0.0615,0.0194 -0.1061,0.0257 -0.0436,0.0066 -0.0989,0.0096 -0.1656,0.0096 -0.0661,0 -0.1213,-0.003 -0.1659,-0.0096 -0.0436,-0.0063 -0.0792,-0.015 -0.1051,-0.0257 -0.0267,-0.0096 -0.0456,-0.0237 -0.0561,-0.0408 -0.0118,-0.0161 -0.0169,-0.0355 -0.0169,-0.0561l0 -3.2831 -0.8466 0c-0.0171,0 -0.0321,-0.0065 -0.0438,-0.0194 -0.0125,-0.0117 -0.0231,-0.0322 -0.0319,-0.058 -0.0083,-0.0258 -0.0154,-0.0613 -0.0196,-0.1042 -0.0037,-0.043 -0.0064,-0.0945 -0.0064,-0.1558 0,-0.0623 0.0027,-0.1161 0.0064,-0.1601 0.0042,-0.044 0.0113,-0.0794 0.0196,-0.1053 0.0088,-0.0269 0.0194,-0.045 0.0319,-0.0569 0.0117,-0.0117 0.0267,-0.0171 0.0438,-0.0171l2.3809 0c0.0162,0 0.0304,0.0054 0.0439,0.0171 0.0125,0.0119 0.023,0.03 0.0321,0.0569 0.0088,0.0259 0.0151,0.0613 0.0196,0.1053 0.0044,0.044 0.0071,0.0978 0.0071,0.1601zm5.4476 3.6261c0,0.0215 -0.0054,0.0396 -0.0152,0.0557 -0.0106,0.015 -0.0294,0.029 -0.0552,0.0388 -0.0257,0.0108 -0.0615,0.0181 -0.106,0.0237 -0.0437,0.0054 -0.099,0.0084 -0.1659,0.0084 -0.0659,0 -0.1211,-0.003 -0.1657,-0.0084 -0.0436,-0.0056 -0.0793,-0.0129 -0.1051,-0.0237 -0.0269,-0.0098 -0.0455,-0.0238 -0.0561,-0.0388 -0.0117,-0.0161 -0.0169,-0.0342 -0.0169,-0.0557l0 -3.2758 -1.2584 0 0 3.2758c0,0.0215 -0.0062,0.0396 -0.0169,0.0557 -0.0116,0.015 -0.0304,0.029 -0.0562,0.0388 -0.0267,0.0108 -0.0614,0.0181 -0.1051,0.0237 -0.0428,0.0054 -0.0989,0.0084 -0.1668,0.0084 -0.0657,0 -0.1211,-0.003 -0.1657,-0.0084 -0.0445,-0.0056 -0.0801,-0.0129 -0.1058,-0.0237 -0.026,-0.0098 -0.0446,-0.0238 -0.0546,-0.0388 -0.0106,-0.0161 -0.016,-0.0342 -0.016,-0.0557l0 -3.7045c0,-0.0881 0.0187,-0.1538 0.0554,-0.1966 0.0363,-0.0431 0.0845,-0.0644 0.146,-0.0644l2.2324 0c0.0623,0 0.1113,0.0213 0.1461,0.0644 0.0348,0.0428 0.0517,0.1085 0.0517,0.1966l0 3.7045zm4.6731 -0.0056c0,0.0206 -0.0042,0.04 -0.014,0.0561 -0.0098,0.0171 -0.0269,0.0312 -0.0527,0.0408 -0.025,0.0107 -0.0588,0.0194 -0.0997,0.0257 -0.0419,0.0066 -0.0954,0.0096 -0.1595,0.0096 -0.0625,0 -0.1152,-0.003 -0.1571,-0.0096 -0.0417,-0.0063 -0.0747,-0.015 -0.0987,-0.0257 -0.025,-0.0096 -0.0419,-0.0237 -0.0527,-0.0408 -0.0106,-0.0161 -0.015,-0.0355 -0.015,-0.0561l0 -3.3142 -0.0054 0 -0.9795 3.3111c-0.0071,0.0269 -0.0177,0.0494 -0.0338,0.0677 -0.016,0.0173 -0.0373,0.0311 -0.0642,0.0419 -0.0266,0.0107 -0.0613,0.0173 -0.1032,0.0205 -0.041,0.0031 -0.0919,0.0052 -0.1507,0.0052 -0.0598,0 -0.1096,-0.003 -0.1516,-0.0084 -0.0419,-0.0056 -0.0765,-0.0129 -0.1032,-0.0248 -0.0269,-0.0117 -0.0481,-0.0258 -0.0642,-0.0429 -0.0152,-0.0161 -0.026,-0.0367 -0.0312,-0.0592l-0.9455 -3.3111 -0.0046 0 0 3.3142c0,0.0206 -0.0052,0.04 -0.0152,0.0561 -0.0086,0.0171 -0.0267,0.0312 -0.0532,0.0408 -0.026,0.0107 -0.059,0.0194 -0.1,0.0257 -0.0411,0.0066 -0.0936,0.0096 -0.1585,0.0096 -0.0625,0 -0.1149,-0.003 -0.1561,-0.0096 -0.0419,-0.0063 -0.0757,-0.015 -0.1007,-0.0257 -0.0257,-0.0096 -0.0426,-0.0237 -0.0524,-0.0408 -0.0098,-0.0161 -0.0145,-0.0355 -0.0145,-0.0561l0 -3.6292c0,-0.1074 0.0233,-0.1889 0.0704,-0.2458 0.0473,-0.0571 0.1097,-0.0849 0.1881,-0.0849l0.4492 0c0.0803,0 0.1487,0.0075 0.2058,0.0236 0.0578,0.0162 0.1078,0.0419 0.1489,0.0784 0.0419,0.0365 0.0765,0.085 0.1052,0.1451 0.0276,0.0602 0.0517,0.1332 0.073,0.2212l0.7309 2.4271 0.0105 0 0.7566 -2.4207c0.0233,-0.088 0.0483,-0.1622 0.0748,-0.2233 0.0269,-0.0602 0.058,-0.1096 0.0938,-0.1473 0.0355,-0.0386 0.0782,-0.0643 0.1264,-0.0805 0.0491,-0.0161 0.1061,-0.0236 0.1701,-0.0236l0.4618 0c0.0473,0 0.0883,0.0075 0.1221,0.0213 0.0338,0.0152 0.0615,0.0367 0.0828,0.0657 0.0223,0.0279 0.0383,0.0623 0.05,0.1032 0.0115,0.0408 0.0167,0.0881 0.0167,0.1405l0 3.6292z"/>
   </g>
  </g>
 </g>
</svg>
