<?xml version="1.0" encoding="UTF-8"?>
<!DOCTYPE svg PUBLIC "-//W3C//DTD SVG 1.1//EN" "http://www.w3.org/Graphics/SVG/1.1/DTD/svg11.dtd">
<!-- Creator: CorelDRAW -->
<svg xmlns="http://www.w3.org/2000/svg" xml:space="preserve" width="39.423mm" height="39.423mm" style="shape-rendering:geometricPrecision; text-rendering:geometricPrecision; image-rendering:optimizeQuality; fill-rule:evenodd; clip-rule:evenodd"
viewBox="0 0 13.4636 13.4636"
 xmlns:xlink="http://www.w3.org/1999/xlink">
 <defs>
  <style type="text/css">
   <![CDATA[
    .fil0 {fill:#4EA69D}
   ]]>
  </style>
 </defs>
 <g id="Слой_x0020_1">
  <metadata id="CorelCorpID_0Corel-Layer"/>
  <path class="fil0" d="M9.19064 4.31173c0,-0.0853794 -0.0814861,-0.160103 -0.174652,-0.160103l-3.60919 0c-0.093166,0 -0.174652,0.074724 -0.174652,0.160103l0 0.533621c0,0.0853794 0.0814861,0.160069 0.174652,0.160069l3.60919 0c0.093166,0 0.174652,-0.074724 0.174652,-0.160103l0 -0.533587z"/>
  <path class="fil0" d="M4.76646 5.59238c0,-0.0853794 -0.0815202,-0.160069 -0.174652,-0.160069l-0.34927 0c-0.093166,0 -0.174652,0.0746899 -0.174652,0.160069l0 1.38745c0,0.0853794 0.0814861,0.160069 0.174652,0.160069l0.34927 0c0.0931318,0 0.174652,-0.0746899 0.174652,-0.160069l0 -1.38745z"/>
  <path class="fil0" d="M4.76646 7.7269c0,-0.0853794 -0.0815202,-0.160103 -0.174652,-0.160103l-0.34927 0c-0.093166,0 -0.174652,0.074724 -0.174652,0.160103l0 1.38741c0,0.0853452 0.0814861,0.160069 0.174652,0.160069l0.34927 0c0.0931318,0 0.174652,-0.074724 0.174652,-0.160103l0 -1.38738z"/>
  <path class="fil0" d="M6.97853 5.59238c0,-0.0853794 -0.0814861,-0.160069 -0.174618,-0.160069l-1.39711 0c-0.093166,0 -0.174652,0.0746899 -0.174652,0.160069l0 0.320173c0,0.0853794 0.0814861,0.160103 0.174652,0.160103l1.39711 0c0.0931318,0 0.174618,-0.074724 0.174618,-0.160103l0 -0.320173z"/>
  <path class="fil0" d="M9.19064 5.59238c0,-0.0853794 -0.0814861,-0.160069 -0.174652,-0.160069l-1.39711 0c-0.0931318,0 -0.174618,0.0746899 -0.174618,0.160069l0 0.320173c0,0.0853794 0.0814861,0.160103 0.174618,0.160103l1.39711 0c0.093166,0 0.174652,-0.074724 0.174652,-0.160103l0 -0.320173z"/>
  <path class="fil0" d="M6.97853 6.65962c0,-0.0853794 -0.0814861,-0.160069 -0.174618,-0.160069l-1.39711 0c-0.093166,0 -0.174652,0.074724 -0.174652,0.160103l0 0.320173c0,0.0853794 0.0814861,0.160069 0.174652,0.160069l1.39711 0c0.0931318,0 0.174618,-0.0746899 0.174618,-0.160069l0 -0.320207z"/>
  <path class="fil0" d="M9.19064 6.65962c0,-0.0853794 -0.0814861,-0.160069 -0.174652,-0.160069l-1.39711 0c-0.0931318,0 -0.174618,0.074724 -0.174618,0.160103l0 0.320173c0,0.0853794 0.0814861,0.160069 0.174618,0.160069l1.39711 0c0.093166,0 0.174652,-0.0746899 0.174652,-0.160069l0 -0.320207z"/>
  <path class="fil0" d="M6.97853 7.7269c0,-0.0853794 -0.0814861,-0.160103 -0.174618,-0.160103l-1.39711 0c-0.093166,0 -0.174652,0.074724 -0.174652,0.160103l0 0.320138c0,0.0853794 0.0814861,0.160103 0.174652,0.160103l1.39711 0c0.0931318,0 0.174618,-0.074724 0.174618,-0.160103l0 -0.320138z"/>
  <path class="fil0" d="M9.19064 7.7269c0,-0.0853794 -0.0814861,-0.160103 -0.174652,-0.160103l-1.39711 0c-0.0931318,0 -0.174618,0.074724 -0.174618,0.160103l0 0.320138c0,0.0853794 0.0814861,0.160103 0.174618,0.160103l1.39711 0c0.093166,0 0.174652,-0.074724 0.174652,-0.160103l0 -0.320138z"/>
  <path class="fil0" d="M6.97853 8.79414c0,-0.0853794 -0.0814861,-0.160103 -0.174618,-0.160103l-1.39711 0c-0.093166,0 -0.174652,0.074724 -0.174652,0.160103l0 0.320138c0,0.0853794 0.0814861,0.160103 0.174652,0.160103l1.39711 0c0.0931318,0 0.174618,-0.074724 0.174618,-0.160103l0 -0.320138z"/>
  <path class="fil0" d="M9.19064 8.79414c0,-0.0853794 -0.0814861,-0.160103 -0.174652,-0.160103l-1.39711 0c-0.0931318,0 -0.174618,0.074724 -0.174618,0.160103l0 0.320138c0,0.0853794 0.0814861,0.160103 0.174618,0.160103l1.39711 0c0.093166,0 0.174652,-0.074724 0.174652,-0.160103l0 -0.320138z"/>
  <path class="fil0" d="M6.73182 13.1221c-3.52866,0 -6.3903,-2.86164 -6.3903,-6.3903 0,-3.52866 2.86164,-6.3903 6.3903,-6.3903 3.52866,0 6.3903,2.86164 6.3903,6.3903 0,3.52866 -2.86164,6.3903 -6.3903,6.3903zm6.73182 -6.3903c0,-3.71725 -3.01457,-6.73182 -6.73182,-6.73182 -3.71725,0 -6.73182,3.01457 -6.73182,6.73182 0,3.71725 3.01457,6.73182 6.73182,6.73182 3.71725,0 6.73182,-3.01457 6.73182,-6.73182z"/>
 </g>
</svg>
