<?xml version="1.0" encoding="UTF-8"?>
<!DOCTYPE svg PUBLIC "-//W3C//DTD SVG 1.1//EN" "http://www.w3.org/Graphics/SVG/1.1/DTD/svg11.dtd">
<!-- Creator: CorelDRAW -->
<svg xmlns="http://www.w3.org/2000/svg" xml:space="preserve" width="39.423mm" height="39.423mm" style="shape-rendering:geometricPrecision; text-rendering:geometricPrecision; image-rendering:optimizeQuality; fill-rule:evenodd; clip-rule:evenodd"
viewBox="0 0 16.7756 16.7756"
 xmlns:xlink="http://www.w3.org/1999/xlink">
 <defs>
  <style type="text/css">
   <![CDATA[
    .fil0 {fill:#4EA69D}
   ]]>
  </style>
 </defs>
 <g id="Слой_x0020_1">
  <metadata id="CorelCorpID_0Corel-Layer"/>
  <path class="fil0" d="M11.552 6.99152l0 -0.797866c0,-0.330423 -0.285827,-0.598378 -0.638293,-0.598378l-0.851057 0 0 -0.199488c0,-0.110127 -0.0952758,-0.199445 -0.212764,-0.199445 -0.117488,0 -0.212764,0.0893184 -0.212764,0.199445l0 0.199488 -1.06382 0 0 -0.199488c0,-0.110127 -0.0952758,-0.199445 -0.212764,-0.199445 -0.117488,0 -0.212764,0.0893184 -0.212764,0.199445l0 0.199488 -1.06382 0 0 -0.199488c0,-0.110127 -0.0952758,-0.199445 -0.212764,-0.199445 -0.117488,0 -0.212764,0.0893184 -0.212764,0.199445l0 0.797866c0,0.110169 0.0952758,0.199488 0.212764,0.199488 0.117488,0 0.212764,-0.0893184 0.212764,-0.199488l0 -0.199445 1.06382 0 0 0.199445c0,0.110169 0.0952758,0.199488 0.212764,0.199488 0.117488,0 0.212764,-0.0893184 0.212764,-0.199488l0 -0.199445 1.06382 0 0 0.199445c0,0.110169 0.0952758,0.199488 0.212764,0.199488 0.117488,0 0.212764,-0.0893184 0.212764,-0.199488l0 -0.199445 0.851057 0c0.117488,0 0.212764,0.0893184 0.212764,0.199445l0 0.598421 -5.53187 0 0 -0.598421c0,-0.110127 0.0952758,-0.199445 0.212764,-0.199445l0.212764 0c0.117488,0 0.212764,-0.0893184 0.212764,-0.199488 0,-0.110127 -0.0952758,-0.199445 -0.212764,-0.199445l-0.212764 0c-0.352465,0 -0.638293,0.267955 -0.638293,0.598378l0 4.78724c0,0.330423 0.285827,0.598378 0.638293,0.598378l5.10634 0c0.352465,0 0.638293,-0.267955 0.638293,-0.598421l0 -3.19146c0,-0.110127 -0.0952758,-0.199445 -0.212764,-0.199445 -0.117488,0 -0.212764,0.0893184 -0.212764,0.199445l0 3.19151c0,0.110127 -0.0952758,0.199445 -0.212764,0.199445l-5.10634 0c-0.117488,0 -0.212764,-0.0893184 -0.212764,-0.199488l0 -3.78984 5.74463 0c0.117488,0 0.212764,-0.0893184 0.212764,-0.199488z"/>
  <path class="fil0" d="M7.29675 8.18832c0,-0.220254 -0.190552,-0.398933 -0.425528,-0.398933l-0.425528 0c-0.234977,0 -0.425528,0.178679 -0.425528,0.398933l0 0.398975c0,0.220254 0.190552,0.39889 0.425528,0.39889l0.425528 4.25528e-005c0.234977,-4.25528e-005 0.425528,-0.178679 0.425528,-0.398975l0 -0.398933zm-0.425528 0.398975l-0.425528 0 0 -0.398975 0.425528 0 0 0.398975z"/>
  <path class="fil0" d="M8.66142 9.98354l0.275104 -0.257913c0.0382976,-0.0371912 0.0597442,-0.0868929 0.0597442,-0.138552 0,-0.110169 -0.0952758,-0.199488 -0.212764,-0.199488 -0.0551485,0 -0.108169,0.0200849 -0.147829,0.0559995l-0.275104 0.257913 -0.275104 -0.257913c-0.0396593,-0.0359146 -0.0926801,-0.0559995 -0.147829,-0.0559995 -0.117488,0 -0.212764,0.0893184 -0.212764,0.199488 0,0.0516592 0.0214466,0.101361 0.0597442,0.138552l0.275104 0.257913 -0.275104 0.257913c-0.0414465,0.0375316 -0.0649356,0.0894035 -0.0649356,0.143488 0,0.110127 0.0952758,0.199445 0.212764,0.199445 0.0576591,0 0.112978,-0.0219998 0.15302,-0.0608931l0.275104 -0.257913 0.275104 0.257913c0.0396593,0.0359146 0.0926801,0.0559995 0.147829,0.0559995 0.117488,0 0.212764,-0.0893184 0.212764,-0.199488 0,-0.0517017 -0.0214466,-0.101361 -0.0597442,-0.138552l-0.275104 -0.257913z"/>
  <path class="fil0" d="M9.0261 8.18832c0,-0.220254 -0.190552,-0.398933 -0.425528,-0.398933l-0.425528 0c-0.234977,0 -0.425528,0.178679 -0.425528,0.398933l0 0.398975c0,0.220254 0.190552,0.39889 0.425528,0.39889l0.425528 4.25528e-005c0.234977,-4.25528e-005 0.425528,-0.178679 0.425528,-0.398975l0 -0.398933zm-0.425528 0.398975l-0.425528 0 0 -0.398975 0.425528 0 0 0.398975z"/>
  <path class="fil0" d="M10.7554 8.18832c0,-0.220254 -0.190552,-0.398933 -0.425528,-0.398933l-0.425528 0c-0.234977,0 -0.425528,0.178679 -0.425528,0.398933l0 0.398975c0,0.220254 0.190552,0.39889 0.425528,0.39889l0.425528 4.25528e-005c0.234977,-4.25528e-005 0.425528,-0.178679 0.425528,-0.398975l0 -0.398933zm-0.425528 0.398975l-0.425528 0 0 -0.398975 0.425528 0 0 0.398975z"/>
  <path class="fil0" d="M7.29675 9.73239c0,-0.220296 -0.190552,-0.398933 -0.425528,-0.398933l-0.425528 0c-0.234977,0 -0.425528,0.178637 -0.425528,0.398933l0 0.398933c0,0.220296 0.190552,0.398933 0.425528,0.398933l0.425528 0c0.234977,0 0.425528,-0.178637 0.425528,-0.398933l0 -0.398933zm-0.425528 0.398933l-0.425528 0 0 -0.398933 0.425528 0 0 0.398933z"/>
  <path class="fil0" d="M10.7554 9.73239c0,-0.220296 -0.190552,-0.398933 -0.425528,-0.398933l-0.425528 0c-0.234977,0 -0.425528,0.178637 -0.425528,0.398933l0 0.398933c0,0.220296 0.190552,0.398933 0.425528,0.398933l0.425528 0c0.234977,0 0.425528,-0.178637 0.425528,-0.398933l0 -0.398933zm-0.425528 0.398933l-0.425528 0 0 -0.398933 0.425528 0 0 0.398933z"/>
  <path class="fil0" d="M8.3878 16.3501c-4.39669,0 -7.96228,-3.56559 -7.96228,-7.96228 0,-4.39669 3.56559,-7.96228 7.96228,-7.96228 4.39669,0 7.96228,3.56559 7.96228,7.96228 0,4.39669 -3.56559,7.96228 -7.96228,7.96228zm8.3878 -7.96228c0,-4.63166 -3.75614,-8.3878 -8.3878,-8.3878 -4.63166,0 -8.3878,3.75614 -8.3878,8.3878 0,4.63166 3.75614,8.3878 8.3878,8.3878 4.63166,0 8.3878,-3.75614 8.3878,-8.3878z"/>
 </g>
</svg>
