<?xml version="1.0" encoding="UTF-8"?>
<!DOCTYPE svg PUBLIC "-//W3C//DTD SVG 1.1//EN" "http://www.w3.org/Graphics/SVG/1.1/DTD/svg11.dtd">
<!-- Creator: CorelDRAW -->
<svg xmlns="http://www.w3.org/2000/svg" xml:space="preserve" width="39.423mm" height="39.423mm" style="shape-rendering:geometricPrecision; text-rendering:geometricPrecision; image-rendering:optimizeQuality; fill-rule:evenodd; clip-rule:evenodd"
viewBox="0 0 16.986 16.986"
 xmlns:xlink="http://www.w3.org/1999/xlink">
 <defs>
  <style type="text/css">
   <![CDATA[
    .fil0 {fill:#4EA69D}
   ]]>
  </style>
 </defs>
 <g id="Слой_x0020_1">
  <metadata id="CorelCorpID_0Corel-Layer"/>
  <path class="fil0" d="M5.2615 5.26172l0 6.46297 6.46297 0 0 -6.46297 -6.46297 0zm2.01964 6.03206l-1.6157 0 0 -0.861772 1.6157 0 0 0.861772zm0 -1.29264l-1.6157 0 0 -0.861772 1.6157 0.000172346 0 0.861772 0 -0.000172346zm0 -1.29251l-1.6157 0 0 -0.861772 1.6157 0 0 0.861772zm0 -1.29264l-1.6157 0 0 -0.861772 1.6157 0.000172346 0 0.861772 0 -0.000172346zm2.01976 3.87778l-1.61583 0 0 -0.861772 1.61583 0 0 0.861772zm0 -1.29264l-1.61583 0 0 -0.861772 1.61583 0.000172346 0 0.861772 0 -0.000172346zm0 -1.29251l-1.61583 0 0 -0.861772 1.61583 0 0 0.861772zm0 -1.29264l-1.61583 0 0 -0.861772 1.61583 0.000172346 0 0.861772 0 -0.000172346zm2.01964 3.87778l-1.61566 0 0 -0.861772 1.61566 0 0 0.861772zm0 -1.29264l-1.61566 0 0 -0.861772 1.61566 0.000172346 0 0.861772 0 -0.000172346zm0 -1.29251l-1.61566 0 0 -0.861772 1.61566 0 0 0.861772zm0 -1.29264l-1.61566 0 0 -0.861772 1.61566 0.000172346 0 0.861772 0 -0.000172346z"/>
  <path class="fil0" d="M8.49299 16.5551c-4.45182,0 -8.06212,-3.6103 -8.06212,-8.06212 0,-4.45182 3.6103,-8.06212 8.06212,-8.06212 4.45182,0 8.06212,3.6103 8.06212,8.06212 0,4.45182 -3.6103,8.06212 -8.06212,8.06212zm8.49299 -8.06212c0,-4.68975 -3.80324,-8.49299 -8.49299,-8.49299 -4.68975,0 -8.49299,3.80324 -8.49299,8.49299 0,4.68975 3.80324,8.49299 8.49299,8.49299 4.68975,0 8.49299,-3.80324 8.49299,-8.49299z"/>
 </g>
</svg>
