<?xml version="1.0" encoding="UTF-8"?>
<!DOCTYPE svg PUBLIC "-//W3C//DTD SVG 1.1//EN" "http://www.w3.org/Graphics/SVG/1.1/DTD/svg11.dtd">
<!-- Creator: CorelDRAW -->
<svg xmlns="http://www.w3.org/2000/svg" xml:space="preserve" width="39.423mm" height="39.423mm" style="shape-rendering:geometricPrecision; text-rendering:geometricPrecision; image-rendering:optimizeQuality; fill-rule:evenodd; clip-rule:evenodd"
viewBox="0 0 12.8902 12.8902"
 xmlns:xlink="http://www.w3.org/1999/xlink">
 <defs>
  <style type="text/css">
   <![CDATA[
    .fil0 {fill:#4EA69D}
   ]]>
  </style>
 </defs>
 <g id="Слой_x0020_1">
  <metadata id="CorelCorpID_0Corel-Layer"/>
  <polygon class="fil0" points="5.12159,5.22279 7.75273,5.22279 7.75273,4.97762 5.12159,4.97762 "/>
  <polygon class="fil0" points="5.12159,6.44887 6.45138,6.44887 6.45138,6.2037 5.12159,6.2037 "/>
  <polygon class="fil0" points="7.65042,5.5906 5.12159,5.5906 5.12159,5.83586 7.38754,5.83586 "/>
  <path class="fil0" d="M8.4105 7.04592l0 1.5794 -3.94671 0 0 -4.29151 3.94671 0 0 0.765212 0.218711 -0.203834c0.03358,-0.0309315 0.0705605,-0.0587568 0.110157,-0.0827239l6.53944e-005 -0.631939c-6.53944e-005,-0.084653 -0.0737322,-0.153284 -0.164532,-0.153284l-4.27558 6.53944e-005c-0.0907347,-6.53944e-005 -0.164401,0.068566 -0.164401,0.153219l0 4.59807c0,0.0845222 0.0736668,0.153154 0.164467,0.153154l4.27558 6.53944e-005c0.0907347,-6.53944e-005 0.164401,-0.0686968 0.164401,-0.153317l6.53944e-005 -1.77366c-0.0689911,0.0339397 -0.146026,0.0517923 -0.224074,0.0517923 -0.035313,0 -0.0705605,-0.00362939 -0.104925,-0.0108228l6.53944e-005 9.80916e-005z"/>
  <path class="fil0" d="M8.94464 5.61094l-0.0859609 -0.0801735c-0.0588549,-0.0482937 -0.134549,-0.0750074 -0.212924,-0.0750074 -0.0914213,0 -0.178625,0.0363266 -0.239605,0.0997918l-2.07758 1.54808 -0.137622 0.481597c-0.0011117,0.0034986 -0.00173295,0.00719338 -0.00173295,0.0109209 0,0.0197818 0.0172641,0.0359015 0.0385173,0.0359015 0.00405445,0 0.00807621,-0.000588549 0.0119345,-0.00179835l0.514817 -0.12971 1.92273 -1.79203 0.0812852 0.0758248c0.0113786,0.010692 0.0178527,0.0251768 0.0178527,0.0402502 0,0.0150734 -0.00647404,0.0295256 -0.0179181,0.0402502l-0.808601 0.753637c-0.024621,0.0228226 -0.0384846,0.0540485 -0.0384846,0.0865495 0,0.0677159 0.0589203,0.122647 0.131573,0.122647 0.0348879,0 0.0683698,-0.0129154 0.0930562,-0.0359342l0.808601 -0.753637c0.0607514,-0.056468 0.0949199,-0.133405 0.0949199,-0.213513 0,-0.0801081 -0.0341686,-0.157045 -0.0949199,-0.213643l6.53944e-005 0z"/>
  <path class="fil0" d="M6.44511 12.5632c-3.37837,0 -6.11813,-2.73976 -6.11813,-6.11813 0,-3.37837 2.73976,-6.11813 6.11813,-6.11813 3.37837,0 6.11813,2.73976 6.11813,6.11813 0,3.37837 -2.73976,6.11813 -6.11813,6.11813zm6.44511 -6.11813c0,-3.55893 -2.88618,-6.44511 -6.44511,-6.44511 -3.55893,0 -6.44511,2.88618 -6.44511,6.44511 0,3.55893 2.88618,6.44511 6.44511,6.44511 3.55893,0 6.44511,-2.88618 6.44511,-6.44511z"/>
 </g>
</svg>
